# Blender 4.5.1 LTS
# www.blender.org
mtllib box_open.mtl
o Cube
v 1.000000 1.000000 -1.000000
v 1.000000 -1.000000 -1.000000
v 1.000000 1.000000 1.000000
v 1.000000 -1.000000 1.000000
v -1.000000 1.000000 -1.000000
v -1.000000 -1.000000 -1.000000
v -1.000000 1.000000 1.000000
v -1.000000 -1.000000 1.000000
v -1.000000 -1.000000 0.000000
v 0.000000 -1.000000 -1.000000
v 1.000000 0.000000 -1.000000
v -1.000000 0.000000 1.000000
v 1.000000 0.000000 1.000000
v -1.000000 0.000000 -1.000000
v 0.000000 1.000000 1.000000
v 1.000000 1.000000 0.000000
v 0.000000 -1.000000 1.000000
v -1.000000 1.000000 0.000000
v 0.000000 1.000000 -1.000000
v 1.000000 -1.000000 0.000000
v 0.000000 0.000000 -1.000000
v 0.000000 -1.000000 0.000000
v -1.000000 0.000000 0.000000
v 0.000000 0.000000 1.000000
vn -0.0000 -0.0000 1.0000
vn -0.0000 0.7071 0.7071
vn -0.5774 0.5773 0.5774
vn -0.7071 -0.0000 0.7071
vn -1.0000 -0.0000 -0.0000
vn -0.7071 0.7071 -0.0000
vn -0.5774 0.5773 -0.5774
vn -0.7071 -0.0000 -0.7071
vn -0.0000 -1.0000 -0.0000
vn 0.7071 -0.7071 -0.0000
vn 0.5773 -0.5774 0.5774
vn -0.0000 -0.7071 0.7071
vn -0.0000 -0.0000 -1.0000
vn -0.0000 0.7071 -0.7071
vn 0.5774 0.5773 -0.5774
vn 0.7071 -0.0000 -0.7071
vn -0.0000 -0.7071 -0.7071
vn 0.5773 -0.5774 -0.5774
vn -0.5774 -0.5773 -0.5774
vn -0.5773 0.5774 -0.5774
vn -0.7071 -0.7071 -0.0000
vn -0.5774 -0.5774 0.5773
vn -0.5773 -0.5774 -0.5774
vn 0.5774 -0.5774 -0.5773
vn -0.5774 -0.5774 -0.5773
vn -0.5774 -0.5773 0.5774
vn -0.5774 0.5774 0.5773
vn -0.5773 -0.5774 0.5774
vn 0.5774 -0.5773 0.5774
vn 0.7071 -0.0000 0.7071
vn 0.5773 0.5774 0.5774
vt 0.500000 0.875000
vt 0.625000 0.875000
vt 0.625000 1.000000
vt 0.500000 1.000000
vt 0.500000 0.125000
vt 0.625000 0.125000
vt 0.625000 0.250000
vt 0.500000 0.250000
vt 0.250000 0.625000
vt 0.375000 0.625000
vt 0.375000 0.750000
vt 0.250000 0.750000
vt 0.500000 0.375000
vt 0.625000 0.375000
vt 0.625000 0.500000
vt 0.500000 0.500000
vt 0.375000 0.375000
vt 0.375000 0.500000
vt 0.375000 0.250000
vt 0.125000 0.625000
vt 0.125000 0.750000
vt 0.125000 0.500000
vt 0.250000 0.500000
vt 0.375000 0.125000
vt 0.375000 0.000000
vt 0.500000 0.000000
vt 0.625000 0.000000
vt 0.375000 0.875000
vt 0.375000 1.000000
vt 0.500000 0.750000
vt 0.625000 0.750000
s 0
usemtl Material
f 24/1/1 15/2/2 7/3/3 12/4/4
f 23/5/5 18/6/6 5/7/7 14/8/8
f 22/9/9 20/10/10 4/11/11 17/12/12
f 21/13/13 19/14/14 1/15/15 11/16/16
f 10/17/17 21/13/13 11/16/16 2/18/18
f 6/19/19 14/8/8 21/13/13 10/17/17
f 14/8/8 5/7/20 19/14/14 21/13/13
f 9/20/21 22/9/9 17/12/12 8/21/22
f 6/22/23 10/23/17 22/9/9 9/20/21
f 10/23/17 2/18/24 20/10/10 22/9/9
f 9/24/21 23/5/5 14/8/8 6/19/25
f 8/25/26 12/26/4 23/5/5 9/24/21
f 12/26/4 7/27/27 18/6/6 23/5/5
f 17/28/12 24/1/1 12/4/4 8/29/28
f 4/11/29 13/30/30 24/1/1 17/28/12
f 13/30/30 3/31/31 15/2/2 24/1/1
l 16 3
l 1 16
